<svg height="24" width="24" viewBox="0 0 25 24" xmlns="http://www.w3.org/2000/svg" class="primary-green-500" data-v-4d7a0f36=""><path d="M7.5 22C6.95 22 6.47933 21.8043 6.088 21.413C5.696 21.021 5.5 20.55 5.5 20C5.5 19.45 5.696 18.979 6.088 18.587C6.47933 18.1957 6.95 18 7.5 18C8.05 18 8.52067 18.1957 8.912 18.587C9.304 18.979 9.5 19.45 9.5 20C9.5 20.55 9.304 21.021 8.912 21.413C8.52067 21.8043 8.05 22 7.5 22ZM17.5 22C16.95 22 16.4793 21.8043 16.088 21.413C15.696 21.021 15.5 20.55 15.5 20C15.5 19.45 15.696 18.979 16.088 18.587C16.4793 18.1957 16.95 18 17.5 18C18.05 18 18.521 18.1957 18.913 18.587C19.3043 18.979 19.5 19.45 19.5 20C19.5 20.55 19.3043 21.021 18.913 21.413C18.521 21.8043 18.05 22 17.5 22ZM6.65 6L9.05 11H16.05L18.8 6H6.65ZM5.7 4H20.45C20.8333 4 21.125 4.17067 21.325 4.512C21.525 4.854 21.5333 5.2 21.35 5.55L17.8 11.95C17.6167 12.2833 17.3707 12.5417 17.062 12.725C16.754 12.9083 16.4167 13 16.05 13H8.6L7.5 15H19.5V17H7.5C6.75 17 6.18333 16.6707 5.8 16.012C5.41667 15.354 5.4 14.7 5.75 14.05L7.1 11.6L3.5 4H1.5V2H4.75L5.7 4Z"></path></svg>